<?xml version="1.0" encoding="UTF-8"?>
<svg width="210px" height="53px" viewBox="0 0 210 53" version="1.1" xmlns="http://www.w3.org/2000/svg" xmlns:xlink="http://www.w3.org/1999/xlink">
    <!-- Generator: Sketch 43.2 (39069) - http://www.bohemiancoding.com/sketch -->
    <title>logo-fr</title>
    <desc>Created with Sketch.</desc>
    <defs></defs>
    <g id="Page-3" stroke="none" stroke-width="1" fill="none" fill-rule="evenodd">
        <g id="logo-fr" fill-rule="nonzero" fill="#FFFFFF">
            <g id="logo-en" transform="translate(0.000000, 11.000000)">
                <path d="M0,20.9719482 L0,0.892768693 L3.17400957,0.892768693 C4.52377747,0.846334684 5.87413055,0.966277906 7.1944217,1.24987617 C8.32036534,1.51582063 9.33053915,2.13619232 10.0754458,3.0191814 C10.7874838,3.87581861 11.1685581,4.95831426 11.1497259,6.07082711 C11.152566,6.78162521 10.9851532,7.48282316 10.6614168,8.11607902 C10.2599563,8.81653822 9.70320163,9.41617777 9.03371956,9.86915209 C10.1349106,10.326646 11.0831979,11.0865646 11.7682509,12.0604934 C12.3476756,12.9714636 12.6423017,14.0337174 12.6146534,15.1121391 C12.6246681,16.2030104 12.3195293,17.2736908 11.7356969,18.1962492 C11.193156,19.0918423 10.4091981,19.8173972 9.47319781,20.2901976 C8.26625616,20.8029357 6.95842714,21.0360318 5.64810935,20.9719482 L0,20.9719482 Z M3.84136543,4.5287721 L3.84136543,8.76536535 L4.67149102,8.76536535 C5.42165684,8.80570057 6.16128918,8.57520183 6.75494345,8.11607902 C7.22265184,7.70982287 7.47513469,7.11032832 7.43857629,6.49286322 C7.46218392,5.9219383 7.22227991,5.37167826 6.7874974,4.99950468 C6.22474226,4.63142397 5.55308268,4.4654026 4.88309165,4.5287721 L3.84136543,4.5287721 Z M3.84136543,12.1741185 L3.84136543,17.3197126 L4.80170679,17.3197126 C5.92198211,17.4311588 7.0509517,17.2228744 8.05710123,16.7191228 C8.6139636,16.3129203 8.92646714,15.6529701 8.88722681,14.9660497 C8.88353098,14.1801712 8.5021816,13.4437183 7.86177756,12.9857264 C6.88337475,12.3991794 5.74343493,12.1377151 4.60638313,12.2390472 L3.84136543,12.1741185 Z" id="Shape"></path>
                <polygon id="Shape" points="15.4468466 0.389571793 19.1905502 0.389571793 19.1905502 20.9719482 15.4468466 20.9719482"></polygon>
                <path d="M22.5598834,6.11952358 L26.336141,6.11952358 L26.336141,13.2779053 C26.2841279,14.2717495 26.3829033,15.2677286 26.6291265,16.232158 C26.795239,16.7419839 27.1202956,17.1855735 27.5569139,17.4982664 C28.0352827,17.8226806 28.606868,17.9822839 29.1846111,17.9527668 C29.7598023,17.9801785 30.3291165,17.8268869 30.8123083,17.5144985 C31.2625548,17.1942993 31.5989065,16.7394849 31.7726497,16.2159259 C31.9752681,15.3163951 32.0519561,14.3932094 32.0005273,13.4726912 L32.0005273,6.11952358 L35.7442309,6.11952358 L35.7442309,12.4176009 C35.8502742,14.2146882 35.640958,16.0164426 35.125706,17.7417487 C34.6795435,18.8390955 33.9069928,19.7738008 32.9120377,20.4200548 C31.7865352,21.0856157 30.4921115,21.4125584 29.1846111,21.36152 C27.783864,21.4266728 26.3986449,21.0457915 25.2293069,20.2739654 C24.1998409,19.519756 23.4500017,18.4466137 23.0970235,17.2223197 C22.7342385,15.6257837 22.5864446,13.9881504 22.6575453,12.3526723 L22.5598834,6.11952358 Z" id="Shape"></path>
                <path d="M54.3325331,14.6089422 L42.3201277,14.6089422 C42.4527756,15.5895893 42.9458174,16.4861901 43.7036703,17.1249267 C44.5202532,17.7721597 45.5423683,18.106168 46.5846944,18.0663919 C47.932599,18.0849412 49.2304809,17.5578472 50.1819052,16.6054977 L53.3233609,18.0826241 C52.5977616,19.1376401 51.6108944,19.9875879 50.4586138,20.5499121 C49.23438,21.1088462 47.8980997,21.3809189 46.5521404,21.3452878 C44.4238171,21.4274124 42.3561314,20.6284636 40.8389232,19.1377143 C39.3762049,17.6779403 38.5813416,15.6815741 38.641532,13.6187806 C38.5760418,11.5166792 39.3690475,9.47811479 40.8389232,7.9699896 C42.2803987,6.48255606 44.2834484,5.66940028 46.3568168,5.72995179 C48.4993141,5.64813776 50.5779102,6.46668713 52.086311,7.98622176 C53.5910335,9.58416731 54.3836084,11.7211551 54.2837022,13.9109594 L54.3325331,14.6089422 Z M50.5888295,11.6871538 C50.3313902,10.8934372 49.8158906,10.2079968 49.123902,9.73929483 C48.3872958,9.21885998 47.5035987,8.94595239 46.6009713,8.96015124 C45.6232736,8.9129359 44.6570081,9.18662256 43.850163,9.73929483 C43.2400185,10.2659451 42.7702614,10.9351792 42.4828974,11.6871538 L50.5888295,11.6871538 Z" id="Shape"></path>
                <path d="M61.0549226,6.11952358 L61.0549226,7.74273939 C61.6845728,7.10490459 62.430338,6.59256967 63.2523139,6.23314869 C64.0497573,5.89454991 64.9085531,5.72326364 65.7752446,5.72995179 C67.6427566,5.72820545 69.4211098,6.52626106 70.6583362,7.92129313 C72.0432672,9.46468408 72.7727893,11.4842616 72.6929577,13.553852 C72.7545985,15.6080577 71.9999069,17.6033592 70.5932283,19.10525 C69.3283966,20.534244 67.5075029,21.3505029 65.5961979,21.3452878 C64.7764177,21.3521545 63.9633293,21.197707 63.203483,20.8907874 C62.4091784,20.5504861 61.6817178,20.0723435 61.0549226,19.4785897 L61.0549226,26.4908819 L57.36005,26.4908819 L57.36005,6.11952358 L61.0549226,6.11952358 Z M64.9776729,9.1711693 C63.8747813,9.14099648 62.8105234,9.5773201 62.0478179,10.372349 C61.2526922,11.2182498 60.8305922,12.3465972 60.8758759,13.5051555 C60.8125433,14.7004787 61.2350227,15.8708016 62.0478179,16.7515871 C62.8052606,17.5560618 63.8715241,17.999115 64.9776729,17.968999 C66.0740425,17.987308 67.1246978,17.5315016 67.858697,16.7191228 C68.6714923,15.8383373 69.0939717,14.6680144 69.030639,13.4726912 C69.0731204,12.3175621 68.6579749,11.192175 67.874974,10.3398847 C67.1251547,9.55922012 66.0773048,9.13414964 64.9939499,9.1711693 L64.9776729,9.1711693 Z" id="Shape"></path>
                <path d="M74.9880108,6.11952358 L78.2434053,6.11952358 L78.2434053,7.98622176 C78.5486729,7.33018589 79.0268734,6.76914592 79.6269479,6.36300596 C80.1404831,5.98929776 80.7503826,5.76966266 81.3848609,5.72995179 C81.9125282,5.74375135 82.43015,5.87696339 82.8986193,6.11952358 L81.7429543,9.36595519 C81.4134139,9.17967746 81.046469,9.06878817 80.6686741,9.04131203 C80.0147234,9.08862773 79.4455621,9.50486356 79.2037466,10.1126345 C78.7000754,11.4426843 78.4945134,12.8665758 78.6014986,14.2842991 L78.6014986,21.0206447 L74.9880108,21.0206447 L74.9880108,6.11952358 Z" id="Shape"></path>
                <path d="M86.2679525,0 C86.8847175,0.0102585286 87.4713772,0.267678128 87.8956498,0.714214954 C88.3539204,1.16893888 88.606647,1.790224 88.5955596,2.43482371 C88.5842109,3.04637878 88.3329348,3.62913285 87.8956498,4.05803951 C87.4909105,4.54384545 86.9005138,4.83823105 86.2679525,4.86964741 C85.6507845,4.86123123 85.0634382,4.60351037 84.6402553,4.15543246 C84.1794756,3.69571734 83.9266963,3.06844013 83.9403455,2.41859155 C83.946368,1.80590367 84.1984819,1.22120657 84.6402553,0.795375744 C85.0504072,0.318764788 85.6389366,0.0311793661 86.2679525,2.5410055e-16 L86.2679525,0 Z M84.4123777,6.11952358 L88.1560813,6.11952358 L88.1560813,20.9719482 L84.4123777,20.9719482 L84.4123777,6.11952358 Z" id="Shape"></path>
                <path d="M91.5579685,6.11952358 L95.3016721,6.11952358 L95.3016721,7.64534644 C96.0054571,7.02782611 96.8018116,6.52394404 97.6618331,6.1519879 C98.3330564,5.87581703 99.0517359,5.73247687 99.7778395,5.72995179 C101.203313,5.72444979 102.566322,6.31287239 103.53782,7.3531676 C104.475848,8.41994654 104.945006,9.81769551 104.839978,11.2326534 L104.839978,20.9719482 L101.06372,20.9719482 L101.06372,14.479085 C101.111158,13.2942101 101.029293,12.1077033 100.819566,10.9404745 C100.698697,10.4171986 100.406643,9.94891527 99.9894401,9.60943756 C99.5666683,9.29719374 99.0502951,9.13698662 98.5245126,9.15493714 C97.7979439,9.14197391 97.0957488,9.41624308 96.5712759,9.91784857 C95.9951047,10.4879382 95.6038438,11.217412 95.4481649,12.011797 C95.3032872,13.0112925 95.2488113,14.0217537 95.2853951,15.0309784 L95.2853951,20.9881804 L91.5416915,20.9881804 L91.5579685,6.11952358 Z" id="Shape"></path>
                <polygon id="Shape" points="108.827836 0.649286322 112.57154 0.649286322 112.57154 6.11952358 114.785208 6.11952358 114.785208 9.36595519 112.57154 9.36595519 112.57154 21.0044125 108.827836 21.0044125 108.827836 9.33349088 106.907153 9.33349088 106.907153 6.08705927 108.827836 6.08705927"></polygon>
            </g>
            <g id="Group" transform="translate(129.000000, 0.000000)">
                <path d="M7.37917553,32.5746932 L12.7612997,26.7445799 C14.2464765,25.2138502 15.5576021,23.521376 16.6704215,21.6984671 C17.3611378,20.4317528 17.7217217,19.0095675 17.7185194,17.5646458 C17.7273599,15.4540716 16.8825785,13.4307177 15.3784802,11.9599681 C13.874382,10.4892186 11.8404413,9.69767731 9.74447748,9.76740373 C7.47559117,9.73064981 5.29232564,10.6384561 3.71083299,12.2762056 C2.07850886,13.949592 1.16755255,16.2032124 1.17556923,18.5482102 L1.17556923,19.0186105 L4.39068026,19.0186105 L4.39068026,18.6052284 C4.42746932,17.0777066 5.0108729,15.6148811 6.03364449,14.4856617 C6.97360893,13.5300661 8.26759317,13.0132785 9.60284263,13.0602061 C10.8957314,13.0404518 12.1399803,13.5557808 13.0445694,14.4856617 C13.958386,15.308119 14.4747144,16.487721 14.4609179,17.7214459 C14.4505574,18.7254582 14.176949,19.7089142 13.6677627,20.5723571 C12.6031545,22.1724542 11.3890158,23.6664736 10.0419107,25.0340331 L0,35.8817502 L18.0442795,35.8817502 L18.0442795,32.5746932 L7.37917553,32.5746932 Z" id="Shape"></path>
                <path d="M28.2335606,9.76315789 C21.0839998,9.76315789 15.2881356,15.5962895 15.2881356,22.791822 C15.2881356,29.9873545 21.0839998,35.8204862 28.2335606,35.8204862 C35.3831214,35.8204862 41.1789856,29.9873545 41.1789856,22.791822 C41.1789856,19.3364055 39.8150966,16.0225138 37.3873584,13.5791653 C34.9596203,11.1358168 31.6669008,9.76315789 28.2335606,9.76315789 L28.2335606,9.76315789 Z M28.2335606,32.5704474 C22.8753011,32.5704474 18.5315736,28.1987897 18.5315736,22.8060766 C18.5315736,17.4133635 22.8753011,13.0417058 28.2335606,13.0417058 C33.5918201,13.0417058 37.9355476,17.4133635 37.9355476,22.8060766 C37.9355476,28.1987897 33.5918201,32.5704474 28.2335606,32.5704474 L28.2335606,32.5704474 Z" id="Shape"></path>
                <path d="M44.8196184,32.5730159 L50.2017425,26.7429026 C51.6869193,25.2121729 52.998045,23.5196986 54.1108643,21.6967898 C54.8015806,20.4300755 55.1621645,19.0078902 55.1589622,17.5629685 C55.16731,15.4625843 54.3302556,13.4483021 52.8386131,11.9792952 C51.3469706,10.5102882 49.3278668,9.71175436 47.2415742,9.76572642 C44.9789924,9.71776577 42.7966502,10.6097208 41.2079298,12.2317646 C39.5756056,13.905151 38.6646493,16.1587714 38.672666,18.5037692 L38.672666,18.9741696 L41.887777,18.9741696 L41.887777,18.5607874 C41.9245661,17.0332656 42.5079697,15.5704402 43.5307412,14.4412208 C44.4707057,13.4856251 45.7646899,12.9688376 47.0999394,13.0157652 C48.3928282,12.9960109 49.637077,13.5113398 50.5416662,14.4412208 C51.4554827,15.263678 51.9718112,16.44328 51.9580146,17.677005 C51.9476541,18.6810172 51.6740458,19.6644732 51.1648595,20.5279162 C50.1002512,22.1280132 48.8861126,23.6220326 47.5390074,24.9895922 L37.5254237,35.8800729 L55.4847223,35.8800729 L55.4847223,32.5730159 L44.8196184,32.5730159 Z" id="Shape"></path>
                <path d="M56.0573742,22.7921966 C55.9215833,19.2173173 57.7391484,15.853922 60.7946657,14.0258617 C63.850183,12.1978014 67.6543759,12.1978014 70.7098932,14.0258617 C73.7654105,15.853922 75.5829755,19.2173173 75.4471847,22.7921966 L75.4471847,22.7921966 L78.7047862,22.7921966 L78.7047862,22.7921966 C78.7047831,17.5212974 75.5491968,12.7696744 70.710084,10.7539228 C65.8709711,8.73817119 60.3018034,9.85546352 56.6005544,13.5845916 C52.8993055,17.3137196 51.7952486,22.9199168 53.8034178,27.7879356 C55.8115871,32.6559544 60.5363039,35.8266276 65.7735247,35.8208608 L65.7735247,32.570822 C63.1954886,32.5746126 60.7219588,31.5455848 58.89901,29.7109144 C57.0760613,27.8762441 56.0536078,25.3868095 56.0573742,22.7921966 L56.0573742,22.7921966 Z" id="Shape"></path>
                <polygon id="Shape" points="61.1525424 52.1859293 61.9032071 52.1859293 80.7831322 0 80.018304 0"></polygon>
            </g>
        </g>
    </g>
</svg>