<?xml version="1.0" encoding="UTF-8"?>
<svg width="209px" height="53px" viewBox="0 0 209 53" version="1.1" xmlns="http://www.w3.org/2000/svg" xmlns:xlink="http://www.w3.org/1999/xlink">
    <!-- Generator: Sketch 43.2 (39069) - http://www.bohemiancoding.com/sketch -->
    <title>logo-en</title>
    <desc>Created with Sketch.</desc>
    <defs></defs>
    <g id="Page-3" stroke="none" stroke-width="1" fill="none" fill-rule="evenodd">
        <g id="logo-en" fill-rule="nonzero" fill="#FFFFFF">
            <g id="Group-Copy" transform="translate(128.000000, 0.000000)">
                <path d="M7.37917553,32.5746932 L12.7612997,26.7445799 C14.2464765,25.2138502 15.5576021,23.521376 16.6704215,21.6984671 C17.3611378,20.4317528 17.7217217,19.0095675 17.7185194,17.5646458 C17.7273599,15.4540716 16.8825785,13.4307177 15.3784802,11.9599681 C13.874382,10.4892186 11.8404413,9.69767731 9.74447748,9.76740373 C7.47559117,9.73064981 5.29232564,10.6384561 3.71083299,12.2762056 C2.07850886,13.949592 1.16755255,16.2032124 1.17556923,18.5482102 L1.17556923,19.0186105 L4.39068026,19.0186105 L4.39068026,18.6052284 C4.42746932,17.0777066 5.0108729,15.6148811 6.03364449,14.4856617 C6.97360893,13.5300661 8.26759317,13.0132785 9.60284263,13.0602061 C10.8957314,13.0404518 12.1399803,13.5557808 13.0445694,14.4856617 C13.958386,15.308119 14.4747144,16.487721 14.4609179,17.7214459 C14.4505574,18.7254582 14.176949,19.7089142 13.6677627,20.5723571 C12.6031545,22.1724542 11.3890158,23.6664736 10.0419107,25.0340331 L0,35.8817502 L18.0442795,35.8817502 L18.0442795,32.5746932 L7.37917553,32.5746932 Z" id="Shape"></path>
                <path d="M28.2335606,9.76315789 C21.0839998,9.76315789 15.2881356,15.5962895 15.2881356,22.791822 C15.2881356,29.9873545 21.0839998,35.8204862 28.2335606,35.8204862 C35.3831214,35.8204862 41.1789856,29.9873545 41.1789856,22.791822 C41.1789856,19.3364055 39.8150966,16.0225138 37.3873584,13.5791653 C34.9596203,11.1358168 31.6669008,9.76315789 28.2335606,9.76315789 L28.2335606,9.76315789 Z M28.2335606,32.5704474 C22.8753011,32.5704474 18.5315736,28.1987897 18.5315736,22.8060766 C18.5315736,17.4133635 22.8753011,13.0417058 28.2335606,13.0417058 C33.5918201,13.0417058 37.9355476,17.4133635 37.9355476,22.8060766 C37.9355476,28.1987897 33.5918201,32.5704474 28.2335606,32.5704474 L28.2335606,32.5704474 Z" id="Shape"></path>
                <path d="M44.8196184,32.5730159 L50.2017425,26.7429026 C51.6869193,25.2121729 52.998045,23.5196986 54.1108643,21.6967898 C54.8015806,20.4300755 55.1621645,19.0078902 55.1589622,17.5629685 C55.16731,15.4625843 54.3302556,13.4483021 52.8386131,11.9792952 C51.3469706,10.5102882 49.3278668,9.71175436 47.2415742,9.76572642 C44.9789924,9.71776577 42.7966502,10.6097208 41.2079298,12.2317646 C39.5756056,13.905151 38.6646493,16.1587714 38.672666,18.5037692 L38.672666,18.9741696 L41.887777,18.9741696 L41.887777,18.5607874 C41.9245661,17.0332656 42.5079697,15.5704402 43.5307412,14.4412208 C44.4707057,13.4856251 45.7646899,12.9688376 47.0999394,13.0157652 C48.3928282,12.9960109 49.637077,13.5113398 50.5416662,14.4412208 C51.4554827,15.263678 51.9718112,16.44328 51.9580146,17.677005 C51.9476541,18.6810172 51.6740458,19.6644732 51.1648595,20.5279162 C50.1002512,22.1280132 48.8861126,23.6220326 47.5390074,24.9895922 L37.5254237,35.8800729 L55.4847223,35.8800729 L55.4847223,32.5730159 L44.8196184,32.5730159 Z" id="Shape"></path>
                <path d="M56.0573742,22.7921966 C55.9215833,19.2173173 57.7391484,15.853922 60.7946657,14.0258617 C63.850183,12.1978014 67.6543759,12.1978014 70.7098932,14.0258617 C73.7654105,15.853922 75.5829755,19.2173173 75.4471847,22.7921966 L75.4471847,22.7921966 L78.7047862,22.7921966 L78.7047862,22.7921966 C78.7047831,17.5212974 75.5491968,12.7696744 70.710084,10.7539228 C65.8709711,8.73817119 60.3018034,9.85546352 56.6005544,13.5845916 C52.8993055,17.3137196 51.7952486,22.9199168 53.8034178,27.7879356 C55.8115871,32.6559544 60.5363039,35.8266276 65.7735247,35.8208608 L65.7735247,32.570822 C63.1954886,32.5746126 60.7219588,31.5455848 58.89901,29.7109144 C57.0760613,27.8762441 56.0536078,25.3868095 56.0573742,22.7921966 L56.0573742,22.7921966 Z" id="Shape"></path>
                <polygon id="Shape" points="61.1525424 52.1859293 61.9032071 52.1859293 80.7831322 0 80.018304 0"></polygon>
            </g>
            <g id="logo-FR" transform="translate(0.000000, 7.000000)">
                <path d="M12.2498507,1.19924528 C15.2906752,1.15062417 18.2137007,2.37217115 20.3134328,4.5690566 C22.5136506,6.7301854 23.7274628,9.69946091 23.6702985,12.7807547 C23.7226017,15.8403278 22.5080239,18.7858078 20.3134328,20.9215094 C18.216018,23.0962242 15.3085759,24.3037886 12.2853731,24.2558491 C9.17234478,24.3365116 6.1732811,23.0843821 4.0441791,20.8150943 C1.91371083,18.6581213 0.736781319,15.7391578 0.776119403,12.7098113 C0.760338076,10.6810467 1.28767748,8.68491498 2.30358209,6.92792453 C4.36025234,3.38534737 8.14916489,1.20307526 12.2498507,1.19924528 L12.2498507,1.19924528 Z M12.2498507,5.27849057 C10.2998507,5.21721712 8.41521909,5.98417304 7.06358209,7.3890566 C5.68370057,8.81216824 4.93484258,10.7295769 4.98552239,12.7098113 C4.89519275,14.9491059 5.8697828,17.0993503 7.6141791,18.509434 C8.90016147,19.6420175 10.5529569,20.2719552 12.2676119,20.2830189 C14.2015538,20.2909743 16.0479517,19.478687 17.3473134,18.0483019 C18.7423945,16.6337292 19.4993035,14.7121304 19.4431343,12.7275472 C19.4904698,10.7411115 18.7276192,8.82070325 17.3295522,7.40679245 C15.9948849,6.00743388 14.1313079,5.23473448 12.1965672,5.27849057 L12.2498507,5.27849057 Z" id="Shape"></path>
                <path d="M31.1655224,1.19924528 L31.1655224,9.25132075 C31.8525874,8.55439914 32.6663555,7.99460329 33.5632836,7.60188679 C34.4266594,7.22821349 35.3575248,7.03506295 36.2985075,7.03433962 C38.3363093,7.03243151 40.2768222,7.90441623 41.6268657,9.42867925 C43.1746546,11.1056881 44.0034508,13.3211459 43.9358209,15.6007547 C43.9982963,17.8477467 43.1682778,20.0282179 41.6268657,21.6664151 C40.2466997,23.2277862 38.2597672,24.1196605 36.1741791,24.1139623 C35.279647,24.1214651 34.3924168,23.95271 33.5632836,23.6173585 C32.676311,23.2457602 31.8639764,22.7169941 31.1655224,22.0566038 L31.1655224,23.8301887 L27.1159701,23.8301887 L27.1159701,1.19924528 L31.1655224,1.19924528 Z M35.4459701,10.8120755 C34.2425109,10.7791075 33.0812083,11.2558507 32.2489552,12.1245283 C31.3813256,13.0487905 30.9207363,14.281664 30.9701493,15.5475472 C30.9010416,16.853601 31.3620449,18.1323385 32.2489552,19.094717 C33.0754656,19.9737154 34.2389567,20.4578116 35.4459701,20.4249057 C36.6423126,20.4449107 37.7887723,19.9468801 38.5897015,19.0592453 C39.4766118,18.0968668 39.9376152,16.8181293 39.8685075,15.5120755 C39.9148625,14.2499392 39.4618619,13.0203002 38.6074627,12.0890566 C37.7882494,11.2248414 36.6369486,10.7533525 35.4459701,10.7943396 L35.4459701,10.8120755 Z" id="Shape"></path>
                <path d="M47.1861194,7.46 L51.271194,7.46 L51.271194,24.2203774 C51.3239714,25.3914361 51.1676027,26.5625279 50.809403,27.6788679 C50.5386219,28.4121884 50.0328773,29.0356735 49.3707463,29.4524528 C48.638161,29.8741262 47.7998734,30.077244 46.9552239,30.0377358 C45.9115251,29.9981454 44.8805842,29.7946455 43.9002985,29.434717 L43.9002985,26.2245283 C44.4480211,26.51497 45.0563898,26.6729202 45.6764179,26.6856604 C46.1173759,26.7200619 46.5496721,26.5500065 46.8486567,26.2245283 C47.1776714,25.6951413 47.315545,25.0693377 47.239403,24.4509434 L47.1861194,7.46 Z M49.2286567,0.773584906 C49.9012259,0.78677349 50.5406488,1.0677181 51.0047761,1.55396226 C51.5083843,2.04844641 51.7848018,2.72887525 51.7685075,3.43396226 C51.756124,4.10216969 51.4819352,4.73890807 51.0047761,5.20754717 C50.5229207,5.7049655 49.8595418,5.98581965 49.1664925,5.98581965 C48.4734433,5.98581965 47.8100644,5.7049655 47.328209,5.20754717 C46.827157,4.70409721 46.5516387,4.01948344 46.5644776,3.30981132 C46.566371,2.64294317 46.8349204,2.00445219 47.3104478,1.53622642 C47.8089476,1.01642201 48.5087856,0.738180425 49.2286567,0.773584906 L49.2286567,0.773584906 Z" id="Shape"></path>
                <path d="M71.5367164,16.7358491 L58.4467164,16.7358491 C58.5914599,17.8073398 59.1294599,18.7869987 59.9564179,19.4849057 C60.8474613,20.1920961 61.9627783,20.5570457 63.1001493,20.5135849 C64.570963,20.5338526 65.9871928,19.9579304 67.0253731,18.9173585 L70.4532836,20.5313208 C69.6763011,21.6771227 68.6184872,22.6052052 67.380597,23.2271698 C66.044731,23.8378816 64.5866016,24.1351583 63.1179104,24.0962264 C60.8042083,24.1857075 58.5557349,23.3196767 56.9014925,21.7018868 C55.3053957,20.1068844 54.4380526,17.9255816 54.5037313,15.6716981 C54.4322694,13.3748653 55.2975857,11.1474553 56.9014925,9.49962264 C58.4755158,7.86323629 60.6690609,6.96774315 62.9402985,7.03433962 C65.2659665,6.95497176 67.5192539,7.84857179 69.1567164,9.49962264 C70.7986477,11.2455963 71.6634938,13.5805473 71.5544776,15.9732075 L71.5367164,16.7358491 Z M67.469403,13.5433962 C67.1884889,12.6761525 66.6259833,11.9272153 65.8708955,11.4150943 C65.0671216,10.8464482 64.1028442,10.5482594 63.1179104,10.5637736 C62.0510609,10.5121844 60.9966862,10.8112244 60.1162687,11.4150943 C59.4528733,11.9855435 58.9404565,12.7104313 58.6243284,13.5256604 L67.469403,13.5433962 Z" id="Shape"></path>
                <path d="M90.7543284,10.7411321 L87.3619403,12.6033962 C86.8298987,12.0172988 86.1830759,11.546456 85.4614925,11.22 C84.766035,10.9478506 84.0236762,10.8152605 83.2768657,10.8298113 C81.9122273,10.7742857 80.5820217,11.2660149 79.5825373,12.1954717 C78.6215457,13.119768 78.104108,14.4115164 78.1616418,15.7426415 C78.1158441,17.0143895 78.6129637,18.2457446 79.5292537,19.1301887 C80.4915396,20.0218095 81.7697754,20.4940819 83.0814925,20.4426415 C84.7349829,20.5145951 86.3241547,19.7968667 87.3619403,18.509434 L90.5767164,20.7086792 C88.8179522,22.9779373 86.0578673,24.2433794 83.1880597,24.0962264 C80.6924546,24.2318699 78.2551339,23.3111305 76.4743284,21.56 C73.7773721,18.8066724 73.2675191,14.5882044 75.2310448,11.2732075 C76.0161259,9.94926712 77.1535594,8.86871234 78.5168657,8.15169811 C79.971894,7.38487081 81.5962512,6.99460573 83.2413433,7.01660377 C84.7470219,6.99029121 86.2377481,7.31839056 87.5928358,7.97433962 C88.8675609,8.60953754 89.9565161,9.56254088 90.7543284,10.7411321 L90.7543284,10.7411321 Z" id="Shape"></path>
                <polygon id="Shape" points="94.9104478 1.48301887 98.9955224 1.48301887 98.9955224 7.46 101.411045 7.46 101.411045 11.0071698 98.9955224 11.0071698 98.9955224 23.7237736 94.9104478 23.7237736 94.9104478 10.9716981 92.8323881 10.9716981 92.8323881 7.4245283 94.9104478 7.4245283"></polygon>
                <path d="M105.194179,0.773584906 C105.867184,0.784793749 106.507339,1.06605981 106.970299,1.55396226 C107.470357,2.05081024 107.746128,2.72964907 107.73403,3.43396226 C107.721646,4.10216969 107.447458,4.73890807 106.970299,5.20754717 C106.506705,5.69230304 105.865427,5.96765904 105.194179,5.97018868 C104.520734,5.96099285 103.879831,5.67939762 103.41806,5.18981132 C102.915264,4.68750978 102.639434,4.00212378 102.654328,3.29207547 C102.6609,2.62263031 102.936003,1.98376889 103.41806,1.51849057 C103.886955,1.04364182 104.526358,0.775475612 105.194179,0.773584906 L105.194179,0.773584906 Z M103.151642,7.46 L107.236716,7.46 L107.236716,23.6883019 L103.151642,23.6883019 L103.151642,7.46 Z" id="Shape"></path>
                <path d="M108.995075,7.46 L110.451493,7.46 C110.451493,5.33169811 110.487015,4.07245283 110.55806,3.68226415 C110.631575,2.85211746 111.03447,2.08579456 111.677015,1.55396226 C112.480047,0.976747194 113.461036,0.700452774 114.447761,0.773584906 C115.433629,0.80031399 116.407294,0.998370121 117.325075,1.35886792 L117.325075,4.46264151 C116.853132,4.31427394 116.363162,4.23073997 115.868657,4.21433962 C115.4941,4.18266132 115.120998,4.29001195 114.820746,4.51584906 C114.629453,4.78291236 114.546919,5.1125772 114.589851,5.43811321 L114.589851,7.46 L117.11194,7.46 L117.11194,10.9007547 L114.447761,10.9007547 L114.447761,23.6883019 L110.362687,23.6883019 L110.362687,10.9007547 L108.906269,10.9007547 L108.995075,7.46 Z" id="Shape"></path>
            </g>
        </g>
    </g>
</svg>